<svg xmlns="http://www.w3.org/2000/svg" viewBox="0 0 375.06 375.19"><defs><style>.cls-1{fill:#03c;}.cls-2{fill:#06f;}</style></defs><title>iconLogo</title><g id="Layer_2" data-name="Layer 2"><g id="Layer_1-2" data-name="Layer 1"><path class="cls-1" d="M226.32,306.3l0-148.54a9,9,0,0,0-9-9H68.7a9,9,0,0,0-6.36,15.37C96.26,198,177.05,278.62,210.94,312.65A9,9,0,0,0,226.32,306.3Z"/><path class="cls-1" d="M371.88,2.14A9,9,0,0,0,366.07,0H86.2a9,9,0,0,0-7,3.31L2,98a9,9,0,0,0,7,14.68h252.3Z"/><path class="cls-2" d="M371.87,2.14,261.32,112.7V366.17a9,9,0,0,0,14.65,7l95.75-77.33a9,9,0,0,0,3.34-7V9A9,9,0,0,0,371.87,2.14Z"/></g></g></svg>