<svg xmlns="http://www.w3.org/2000/svg" viewBox="0 0 1173.46 375.19"><defs><style>.cls-1{fill:#003;}.cls-2{fill:#03c;}.cls-3{fill:#06f;}</style></defs><title>logo</title><g id="Layer_2" data-name="Layer 2"><g id="Layer_1-2" data-name="Layer 1"><path class="cls-1" d="M663.34,273.74A4,4,0,0,1,660,271.9L594.57,168.38h-.64V269.79a4,4,0,0,1-3.95,3.95H535.63a4,4,0,0,1-4-3.95V33.84a4,4,0,0,1,4-4H590a4,4,0,0,1,3.95,4V139.59h.64L662.26,31.74a3.94,3.94,0,0,1,3.34-1.85h53a5.43,5.43,0,0,1,4.52,8.43L649.47,149.25a4,4,0,0,0,0,4.45l80,113.82a4,4,0,0,1-3.23,6.22Z"/><path class="cls-1" d="M903.76,273.74a5.43,5.43,0,0,1-5.43-5.43V254h-.64q-6.91,13.2-23,20.11a76.26,76.26,0,0,1-30.4,5.95q-41.34,0-67.07-28.47-24.78-27.66-24.78-69.33,0-41,25.26-68.84,26.22-28.78,66.59-28.79a74.08,74.08,0,0,1,30.24,6.11q15.44,6.77,23.16,19.63h.64v-14a5.43,5.43,0,0,1,5.43-5.43h43.83A5.43,5.43,0,0,1,953,96.28v172a5.43,5.43,0,0,1-5.43,5.43ZM885.31,148.92q-13-13.18-33-13.19-19.79,0-32.65,13.83-12.55,13.35-12.55,33.3,0,19.14,13,32.49a43.94,43.94,0,0,0,32.49,13.51q19.79,0,32.82-13.35,12.85-13.35,12.86-33.3T885.31,148.92Z"/><path class="cls-1" d="M1120.23,273.74a1.45,1.45,0,0,1-1.45-1.46V173.85q0-17.85-5.15-26.54-6.6-11.25-23.49-11.26-17.85,0-25.25,10.94-6.12,9-6.11,27.34v97.95a1.46,1.46,0,0,1-1.46,1.46h-51.77a1.46,1.46,0,0,1-1.46-1.46v-180a1.46,1.46,0,0,1,1.46-1.46h48.07a1.46,1.46,0,0,1,1.46,1.46v18h0a1.47,1.47,0,0,0,1.23-.69q15.8-25,49.28-25,27.83,0,46.8,15.92,11.91,10,17,26.87,4,13.19,4,32V272.28a1.45,1.45,0,0,1-1.45,1.46Z"/><path class="cls-2" d="M226.32,306.3l0-148.54a9,9,0,0,0-9-9H68.7a9,9,0,0,0-6.36,15.37C96.26,198,177.05,278.62,210.94,312.65A9,9,0,0,0,226.32,306.3Z"/><path class="cls-2" d="M371.88,2.14A9,9,0,0,0,366.07,0H86.2a9,9,0,0,0-7,3.31L2,98a9,9,0,0,0,7,14.68h252.3Z"/><path class="cls-3" d="M371.87,2.14,261.32,112.7V366.17a9,9,0,0,0,14.65,7l95.75-77.33a9,9,0,0,0,3.34-7V9A9,9,0,0,0,371.87,2.14Z"/></g></g></svg>